<svg xmlns="http://www.w3.org/2000/svg" width="200.056" height="42" viewBox="0 0 200.056 42"><defs><style>.a{fill:#1d1d1b;}</style></defs><g transform="translate(-1.4 -1.4)"><path class="a" d="M1.4,146.023H7.673a2.339,2.339,0,0,0,2.643,2.243c1.388,0,2.556-.58,2.556-1.568,0-.674-.494-.988-2.062-1.349l-2.729-.714c-6.14-1.655-6.32-5.152-6.32-6.9,0-3.09,3.5-6.234,8.563-6.234,3.944,0,8.743,1.835,8.649,7.081H12.7c0-1.349-.941-1.976-2.243-1.976-1.121,0-2.062.447-2.062,1.349,0,.808.714,1.255,1.8,1.521l3.631.988c5.246,1.435,5.693,4.752,5.693,6.187,0,4.619-4.8,6.681-9.01,6.681-4.666,0-9.1-2.556-9.1-7.308" transform="translate(0 -119.898)"/><path class="a" d="M268.808,12.361h6.634v21h-6.634ZM268,5.978A4.08,4.08,0,0,1,272.125,1.9a4.007,4.007,0,0,1,4.038,4.078,4.066,4.066,0,0,1-4.038,4.078A4.141,4.141,0,0,1,268,5.978" transform="translate(-245.694 -0.461)"/><path class="a" d="M915.228,138.392a4.729,4.729,0,1,0-4.729,4.752,4.734,4.734,0,0,0,4.729-4.752m6.838,0c0,6.767-4.932,10.892-10.178,10.892a8.482,8.482,0,0,1-6.454-2.737v13.064H898.8v-31.5h6.634v2.164a8.358,8.358,0,0,1,6.454-2.776c5.246,0,10.178,4.164,10.178,10.892" transform="translate(-827.029 -116.212)"/><rect class="a" width="6.634" height="31.492" transform="translate(98.464 1.4)"/><path class="a" d="M1379.658,135.3l-4.2,10.923-4.4-10.923H1363.7l8.3,18.546-5.222,12.954h7.081l12.931-31.5Z" transform="translate(-1255.474 -123.4)"/><path class="a" d="M1826.228,22.361a4.728,4.728,0,1,0-4.729,4.729,4.744,4.744,0,0,0,4.729-4.729m6.838,0c0,6.767-4.932,10.892-10.179,10.892a8.482,8.482,0,0,1-6.454-2.737v2.376H1809.8V1.4h6.634V14.2a8.482,8.482,0,0,1,6.454-2.737c5.246.008,10.179,4.133,10.179,10.9" transform="translate(-1666.592)"/><path class="a" d="M2161.6,136.51c-.047-2.062-1.882-3.411-4.258-3.411a4.366,4.366,0,0,0-4.572,3.411Zm6.5,3.9h-15.291c.628,1.976,2.376,3.137,4.885,3.137a7.92,7.92,0,0,0,5.293-2.015l3.4,4.305c-2.062,2.243-5.646,3.5-9.19,3.5-6.587,0-11.3-4.438-11.3-10.806,0-6.814,5.293-11.025,11.3-11.025,5.96,0,11.025,4.172,11.025,10.539.008.572-.04,1.341-.126,2.368" transform="translate(-1976.336 -116.212)"/><path class="a" d="M2448.5,306.631a3.991,3.991,0,0,1,4.038-4.031,4.078,4.078,0,1,1-4.038,4.031" transform="translate(-2255.208 -277.581)"/><path class="a" d="M441.875,129.5a7.885,7.885,0,0,0-6.861,3.944,6.946,6.946,0,0,0-6.634-3.944,4.533,4.533,0,0,0-.455.024,1.285,1.285,0,0,1-.172.016l-.345.047a7.545,7.545,0,0,0-4.674,2.69v-2.321H416.1v21h6.634V140.212c0-3.5,1.835-4.211,3.631-4.211,1.662,0,3.27.988,3.27,4.211v10.743h6.634V140.392c.047-3.317,1.568-4.391,3.584-4.391,1.7,0,3.317.988,3.317,4.211v10.743h6.642V139.678c0-6.414-2.69-10.178-7.936-10.178" transform="translate(-382.181 -118.055)"/></g></svg>